SplineFontDB: 3.2
FontName: EdgeTX_extra
FullName: EdgeTX_extra
FamilyName: EdgeTX_extra
Weight: Regular
Copyright: Copyright (c) 2022, gagarin
UComments: "2022-2-5: Created with FontForge (http://fontforge.org)"
Version: 001.000
ItalicAngle: 0
UnderlinePosition: -30
UnderlineWidth: 0
Ascent: 422
Descent: 90
InvalidEm: 0
LayerCount: 2
Layer: 0 0 "Hinten" 1
Layer: 1 0 "Vorne" 0
XUID: [1021 779 755253580 15286]
StyleMap: 0x0000
FSType: 0
OS2Version: 0
OS2_WeightWidthSlopeOnly: 0
OS2_UseTypoMetrics: 1
CreationTime: 1644084515
ModificationTime: 1644339870
OS2TypoAscent: 0
OS2TypoAOffset: 1
OS2TypoDescent: 0
OS2TypoDOffset: 1
OS2TypoLinegap: 46
OS2WinAscent: 0
OS2WinAOffset: 1
OS2WinDescent: 0
OS2WinDOffset: 1
HheadAscent: 0
HheadAOffset: 1
HheadDescent: 0
HheadDOffset: 1
OS2Vendor: 'PfEd'
MarkAttachClasses: 1
DEI: 91125
Encoding: ISO8859-1
UnicodeInterp: none
NameList: AGL For New Fonts
DisplaySize: -48
AntiAlias: 1
FitToEm: 0
WinInfo: 0 34 16
BeginPrivate: 0
EndPrivate
BeginChars: 256 24

StartChar: uni0080
Encoding: 128 128 2
Width: 512
VWidth: 511
Flags: HW
LayerCount: 2
Fore
SplineSet
41 237 m 5
 41 207 l 5
 184 207 327 207 470 207 c 5
 429 251 388 294 347 338 c 5
 325 317 l 5
 400 237 l 5
 41 237 l 5
321 123 m 5
 345 104 l 6
 437 207 l 5
 402 207 l 6
 321 123 l 5
EndSplineSet
Validated: 5
EndChar

StartChar: uni0081
Encoding: 129 129 3
Width: 512
VWidth: 511
Flags: HW
LayerCount: 2
Fore
SplineSet
459 198 m 1
 460 228 l 1
 116 237 l 1
 176 304 l 1
 153 324 l 1
 119 285 84 248 50 209 c 1
 186 205 323 202 459 198 c 1
92 208 m 1
 50 209 l 1
 146 108 l 1
 169 127 l 1
 92 208 l 1
EndSplineSet
Validated: 5
EndChar

StartChar: uni0082
Encoding: 130 130 4
Width: 512
VWidth: 511
Flags: HW
LayerCount: 2
Fore
SplineSet
244 -10 m 5
 274 -10 l 5
 280 354 l 5
 350 288 l 5
 371 310 l 5
 331 347 291 385 251 422 c 5
 249 278 246 134 244 -10 c 5
275 373 m 5
 255 395 l 5
 150 300 l 5
 170 278 l 5
 275 373 l 5
EndSplineSet
Validated: 5
EndChar

StartChar: uni0083
Encoding: 131 131 5
Width: 512
VWidth: 511
Flags: HW
LayerCount: 2
Fore
SplineSet
280 406 m 5
 250 407 l 5
 249 276 248 144 247 13 c 5
 281 38 315 64 349 89 c 5
 331 113 l 5
 277 73 l 5
 280 406 l 5
248 22 m 5
 269 44 l 5
 191 118 l 5
 170 97 l 5
 248 22 l 5
EndSplineSet
Validated: 5
EndChar

StartChar: uni0084
Encoding: 132 132 6
Width: 512
VWidth: 511
Flags: HW
LayerCount: 2
Fore
SplineSet
341 221 m 5
 371 221 l 5
 371 273 371 324 371 376 c 5
 272 276 173 175 74 75 c 5
 95 54 l 5
 341 303 l 5
 341 221 l 5
350 321 m 5
 349 351 l 5
 210 348 l 5
 211 318 l 5
 350 321 l 5
EndSplineSet
Validated: 5
EndChar

StartChar: uni0085
Encoding: 133 133 7
Width: 512
VWidth: 511
Flags: HW
LayerCount: 2
Fore
SplineSet
406 212 m 5
 376 214 l 5
 371 125 l 5
 126 367 l 5
 105 345 l 5
 202 249 300 153 397 57 c 5
 400 109 403 160 406 212 c 5
384 86 m 5
 384 116 l 5
 248 116 l 5
 248 86 l 5
 384 86 l 5
EndSplineSet
Validated: 5
EndChar

StartChar: uni0086
Encoding: 134 134 8
Width: 512
VWidth: 511
Flags: HW
LayerCount: 2
Fore
SplineSet
100 76 m 5
 152 76 204 76 256 76 c 5
 256 106 l 5
 174 106 l 5
 429 355 l 5
 408 377 l 5
 305 277 203 176 100 76 c 5
125 97 m 5
 155 98 l 5
 149 214 l 5
 119 212 l 5
 125 97 l 5
EndSplineSet
Validated: 5
EndChar

StartChar: uni0087
Encoding: 135 135 9
Width: 512
VWidth: 511
Flags: HW
LayerCount: 2
Fore
SplineSet
256 321 m 5
 256 352 l 5
 201 352 145 352 90 352 c 5
 193 251 295 148 398 47 c 5
 419 69 l 5
 163 321 l 5
 256 321 l 5
142 340 m 5
 112 339 l 5
 115 210 l 5
 145 211 l 5
 142 340 l 5
EndSplineSet
Validated: 5
EndChar

StartChar: uni0088
Encoding: 136 136 10
Width: 512
VWidth: 511
Flags: HW
LayerCount: 2
Fore
SplineSet
89 32 m 1
 259 370 l 1
 432 33 l 1
 89 32 l 1
258 423 m 1
 244 408 l 1
 176 273 108 137 40 2 c 1
 179 2 318 3 457 3 c 2
 482 3 l 1
 412 139 341 275 271 411 c 1
 258 423 l 1
EndSplineSet
Validated: 9
EndChar

StartChar: uni008A
Encoding: 138 138 11
Width: 512
VWidth: 511
Flags: HW
LayerCount: 2
Fore
SplineSet
358.16796875 323.684570312 m 1025
393.995117188 353.04296875 m 2
 369.811523438 374.829101562 l 2
 366.95703125 377.400390625 362.551757812 377.170898438 359.979492188 374.31640625 c 2
 329.32421875 340.298828125 l 2
 326.752929688 337.444335938 326.982421875 333.040039062 329.836914062 330.467773438 c 2
 354.01953125 308.681640625 l 2
 356.875 306.110351562 361.280273438 306.33984375 363.852539062 309.194335938 c 2
 394.506835938 343.211914062 l 2
 397.079101562 346.06640625 396.849609375 350.470703125 393.995117188 353.04296875 c 2
433.028320312 292.380859375 m 2
 418.2578125 321.385742188 l 2
 416.513671875 324.809570312 412.318359375 326.173828125 408.89453125 324.431640625 c 2
 368.108398438 303.672851562 l 2
 364.684570312 301.9296875 363.319335938 297.735351562 365.063476562 294.311523438 c 2
 379.833984375 265.306640625 l 2
 381.577148438 261.8828125 385.7734375 260.518554688 389.197265625 262.260742188 c 2
 429.983398438 283.01953125 l 2
 433.407226562 284.762695312 434.771484375 288.95703125 433.028320312 292.380859375 c 2
436.701171875 260.32421875 m 2
 391.184570312 255.559570312 l 2
 387.36328125 255.16015625 384.5859375 251.733398438 384.986328125 247.912109375 c 2
 388.380859375 215.540039062 l 2
 388.782226562 211.71875 392.209960938 208.94140625 396.030273438 209.340820312 c 2
 441.57421875 214.108398438 l 2
 445.395507812 214.508789062 448.172851562 217.935546875 447.771484375 221.756835938 c 2
 444.376953125 254.134765625 l 2
 443.97265625 257.952148438 440.51953125 260.724609375 436.701171875 260.32421875 c 2
436.192382812 150.578125 m 2
 444.619140625 181.990234375 l 2
 445.615234375 185.700195312 443.411132812 189.521484375 439.700195312 190.517578125 c 2
 395.471679688 202.384765625 l 2
 391.76171875 203.380859375 387.940429688 201.176757812 386.944335938 197.465820312 c 2
 378.517578125 166.053710938 l 2
 377.522460938 162.342773438 379.7265625 158.522460938 383.4375 157.526367188 c 2
 427.665039062 145.659179688 l 2
 431.375976562 144.663085938 435.197265625 146.8671875 436.192382812 150.578125 c 2
399.870117188 88.2431640625 m 2
 419.012695312 114.569335938 l 2
 421.272460938 117.676757812 420.583984375 122.033203125 417.475585938 124.29296875 c 2
 380.436523438 151.21875 l 2
 377.329101562 153.478515625 372.971679688 152.7890625 370.711914062 149.681640625 c 2
 351.569335938 123.356445312 l 2
 349.309570312 120.249023438 349.999023438 115.891601562 353.106445312 113.6328125 c 2
 390.145507812 86.7060546875 l 2
 393.252929688 84.447265625 397.610351562 85.1357421875 399.870117188 88.2431640625 c 2
343.627929688 43.087890625 m 2
 370.912109375 60.7890625 l 2
 374.134765625 62.8798828125 375.053710938 67.1943359375 372.961914062 70.4169921875 c 2
 348.030273438 108.827148438 l 2
 345.938476562 112.049804688 341.623046875 112.96875 338.399414062 110.877929688 c 2
 311.116210938 93.1767578125 l 2
 307.893554688 91.0849609375 306.974609375 86.771484375 309.06640625 83.548828125 c 2
 333.998046875 45.1376953125 l 2
 336.08984375 41.9150390625 340.405273438 40.9970703125 343.627929688 43.087890625 c 2
274.923828125 21.0869140625 m 2
 306.73828125 27.8349609375 l 2
 310.497070312 28.6318359375 312.900390625 32.330078125 312.102539062 36.0888671875 c 2
 302.591796875 80.8828125 l 2
 301.793945312 84.640625 298.094726562 87.044921875 294.3359375 86.248046875 c 2
 262.521484375 79.5 l 2
 258.762695312 78.703125 256.359375 75.00390625 257.157226562 71.24609375 c 2
 266.66796875 26.4521484375 l 2
 267.465820312 22.693359375 271.165039062 20.2900390625 274.923828125 21.0869140625 c 2
202.877929688 25.154296875 m 2
 235.024414062 20.05078125 l 2
 238.819335938 19.4482421875 242.388671875 22.0400390625 242.990234375 25.833984375 c 2
 250.166992188 71.060546875 l 2
 250.76953125 74.85546875 248.177734375 78.4248046875 244.3828125 79.02734375 c 2
 212.236328125 84.1318359375 l 2
 208.44140625 84.734375 204.872070312 82.142578125 204.26953125 78.34765625 c 2
 197.09375 33.12109375 l 2
 196.491210938 29.3271484375 199.083007812 25.7568359375 202.877929688 25.154296875 c 2
137.086914062 54.7587890625 m 2
 165.270507812 38.4755859375 l 2
 168.59765625 36.552734375 172.859375 37.693359375 174.78125 41.0205078125 c 2
 197.692382812 80.6689453125 l 2
 199.614257812 83.99609375 198.474609375 88.2568359375 195.147460938 90.1787109375 c 2
 166.963867188 106.461914062 l 2
 163.63671875 108.383789062 159.375 107.244140625 157.453125 103.916992188 c 2
 134.541992188 64.2685546875 l 2
 132.620117188 60.94140625 133.759765625 56.6806640625 137.086914062 54.7587890625 c 2
86.2890625 105.991210938 m 2
 106.75 80.7119140625 l 2
 109.166992188 77.7255859375 113.5546875 77.2626953125 116.541992188 79.6796875 c 2
 152.120117188 108.46484375 l 2
 155.107421875 110.881835938 155.569335938 115.267578125 153.15234375 118.254882812 c 2
 132.69140625 143.534179688 l 2
 130.274414062 146.520507812 125.88671875 146.983398438 122.899414062 144.56640625 c 2
 87.3212890625 115.780273438 l 2
 84.333984375 113.364257812 83.8720703125 108.977539062 86.2890625 105.991210938 c 2
57.201171875 172 m 2
 67.244140625 141.067382812 l 2
 68.4306640625 137.413085938 72.361328125 135.408203125 76.015625 136.594726562 c 2
 119.573242188 150.725585938 l 2
 123.227539062 151.911132812 125.231445312 155.840820312 124.044921875 159.495117188 c 2
 114.001953125 190.427734375 l 2
 112.815429688 194.08203125 108.885742188 196.0859375 105.23046875 194.900390625 c 2
 61.673828125 180.76953125 l 2
 58.0185546875 179.583984375 56.0146484375 175.654296875 57.201171875 172 c 2
53.712890625 244.06640625 m 2
 52.0009765625 211.5625 l 2
 51.798828125 207.725585938 54.75 204.446289062 58.5859375 204.243164062 c 2
 104.315429688 201.829101562 l 2
 108.151367188 201.625976562 111.430664062 204.576171875 111.6328125 208.413085938 c 2
 113.344726562 240.91796875 l 2
 113.546875 244.754882812 110.596679688 248.034179688 106.759765625 248.236328125 c 2
 61.03125 250.651367188 l 2
 57.1943359375 250.853515625 53.9150390625 247.903320312 53.712890625 244.06640625 c 2
76.28125 312.5703125 m 2
 63.0322265625 282.838867188 l 2
 61.46875 279.330078125 63.0478515625 275.2109375 66.5576171875 273.647460938 c 2
 108.384765625 255.008789062 l 2
 111.89453125 253.444335938 116.012695312 255.024414062 117.577148438 258.533203125 c 2
 130.826171875 288.264648438 l 2
 132.390625 291.7734375 130.810546875 295.892578125 127.301757812 297.456054688 c 2
 85.4736328125 316.095703125 l 2
 81.96484375 317.659179688 77.845703125 316.080078125 76.28125 312.5703125 c 2
121.9140625 368.42578125 m 2
 98.908203125 345.438476562 l 2
 96.1904296875 342.72265625 96.1884765625 338.311523438 98.9052734375 335.594726562 c 2
 131.27734375 303.206054688 l 2
 133.993164062 300.489257812 138.404296875 300.487304688 141.122070312 303.203125 c 2
 164.12890625 326.190429688 l 2
 166.846679688 328.90625 166.848632812 333.31640625 164.131835938 336.034179688 c 2
 131.759765625 368.422851562 l 2
 129.043945312 371.139648438 124.6328125 371.141601562 121.9140625 368.42578125 c 2
249.677734375 324.204101562 m 1025
335.930664062 403.012695312 m 1
 153.09765625 403.012695312 l 1
 251.374023438 276.680664062 l 1
 335.930664062 403.012695312 l 1
250.528320312 300.434570312 m 1025
EndSplineSet
EndChar

StartChar: uni008B
Encoding: 139 139 12
Width: 512
VWidth: 511
Flags: HW
LayerCount: 2
Fore
SplineSet
166.26171875 356.606445312 m 4
 166.26171875 346.703125 177.051757812 339.19921875 186.678710938 344.290039062 c 4
 209.000976562 356.094726562 234.6328125 362.880859375 261.581054688 362.880859375 c 4
 349.990234375 362.880859375 421.767578125 291.104492188 421.767578125 202.694335938 c 4
 421.767578125 114.28515625 349.990234375 42.5078125 261.581054688 42.5078125 c 4
 173.170898438 42.5078125 101.393554688 114.28515625 101.393554688 202.694335938 c 4
 101.393554688 229.84375 108.28125 255.655273438 120.250976562 278.096679688 c 4
 125.37890625 287.7109375 117.888671875 298.557617188 107.958007812 298.557617188 c 4
 102.63671875 298.557617188 98.0078125 295.565429688 95.6650390625 291.172851562 c 4
 81.623046875 264.846679688 73.5478515625 234.631835938 73.5478515625 202.694335938 c 4
 73.5478515625 98.9169921875 157.803710938 14.662109375 261.581054688 14.662109375 c 4
 365.358398438 14.662109375 449.61328125 98.9169921875 449.61328125 202.694335938 c 4
 449.61328125 306.47265625 365.358398438 390.7265625 261.581054688 390.7265625 c 4
 229.880859375 390.7265625 199.875976562 382.770507812 173.690429688 368.922851562 c 4
 169.274414062 366.586914062 166.26171875 361.946289062 166.26171875 356.606445312 c 4
242.903320312 279.053710938 m 5
 225.909179688 261.1640625 208.916015625 243.2734375 191.921875 225.3828125 c 5
 92.6044921875 319.723632812 l 5
 109.598632812 337.614257812 126.591796875 355.504882812 143.5859375 373.395507812 c 5
 242.903320312 279.053710938 l 5
272.174804688 289.654296875 m 6
 152.668945312 403.172851562 l 6
 147.09765625 408.46484375 138.278320312 408.23828125 132.985351562 402.666992188 c 6
 62.8271484375 328.807617188 l 6
 57.5341796875 323.236328125 57.76171875 314.416015625 63.3330078125 309.124023438 c 6
 182.838867188 195.60546875 l 6
 188.41015625 190.313476562 197.229492188 190.540039062 202.522460938 196.111328125 c 6
 272.680664062 269.970703125 l 6
 277.97265625 275.541992188 277.74609375 284.362304688 272.174804688 289.654296875 c 6
EndSplineSet
EndChar

StartChar: uni008C
Encoding: 140 140 13
Width: 512
VWidth: 511
Flags: HW
LayerCount: 2
Fore
SplineSet
298.591796875 222.309570312 m 4
 289.326171875 229.024414062 276.51171875 221.959960938 276.51171875 211.029296875 c 4
 276.51171875 206.390625 278.78515625 202.279296875 282.276367188 199.748046875 c 4
 337.625976562 159.635742188 338.109375 66.1650390625 282.983398438 25.52734375 c 4
 282.70703125 25.32421875 282.439453125 25.111328125 282.1796875 24.888671875 c 4
 263.514648438 8.8916015625 239.907226562 1.3154296875 215.7421875 1.3154296875 c 4
 170.15234375 1.3154296875 124.9296875 28.2265625 109.934570312 71.5537109375 c 4
 109.840820312 71.822265625 109.740234375 72.0869140625 109.631835938 72.34765625 c 4
 104.399414062 84.9111328125 101.951171875 98.080078125 101.951171875 111.208007812 c 4
 101.951171875 161.926757812 138.478515625 211.21875 189.508789062 220.998046875 c 4
 195.936523438 222.229492188 200.799804688 227.88671875 200.799804688 234.671875 c 4
 200.799804688 243 193.348632812 250.08984375 184.245117188 248.345703125 c 4
 118.678710938 235.780273438 74.10546875 174.25390625 74.10546875 111.208007812 c 4
 74.10546875 94.6923828125 77.1650390625 78.0185546875 83.751953125 62.0517578125 c 4
 103.47265625 5.697265625 160.322265625 -26.529296875 215.7421875 -26.529296875 c 4
 245.563476562 -26.529296875 275.633789062 -17.2119140625 299.89453125 3.40625 c 4
 370.301757812 55.7607421875 369.525390625 170.90234375 298.591796875 222.309570312 c 4
223.62109375 96.576171875 m 5
 249.647460938 86.6640625 l 5
 290.497070312 193.734375 l 5
 375.338867188 259.912109375 l 5
 436.482421875 420.176757812 l 5
 207.412109375 422 l 5
 149.93359375 271.34375 l 5
 203.798828125 180.109375 l 5
 165.208984375 78.9609375 l 5
 191.235351562 69.048828125 l 5
 234.599609375 182.709960938 l 5
 180.734375 273.944335938 l 5
 226.538085938 394.000976562 l 5
 396.172851562 392.651367188 l 5
 352.080078125 277.079101562 l 5
 267.23828125 210.901367188 l 5
 223.62109375 96.576171875 l 5
236.634765625 91.6201171875 m 1029
165.333984375 272.64453125 m 1029
EndSplineSet
EndChar

StartChar: uni008D
Encoding: 141 141 14
Width: 512
VWidth: 511
Flags: HW
LayerCount: 2
Fore
SplineSet
297.3203125 317.434570312 m 5
 222.345703125 317.434570312 l 5
 222.345703125 399.8984375 l 5
 297.3203125 399.8984375 l 5
 297.3203125 317.434570312 l 5
211.296875 295.3359375 m 6
 308.370117188 295.3359375 l 6
 314.46875 295.3359375 319.419921875 300.287109375 319.419921875 306.385742188 c 6
 319.419921875 410.947265625 l 6
 319.419921875 417.045898438 314.46875 421.997070312 308.370117188 421.997070312 c 6
 211.296875 421.997070312 l 6
 205.198242188 421.997070312 200.247070312 417.045898438 200.247070312 410.947265625 c 6
 200.247070312 306.385742188 l 6
 200.247070312 300.287109375 205.198242188 295.3359375 211.296875 295.3359375 c 6
136.677734375 71.2001953125 m 5
 135.173828125 292.879882812 l 5
 374.587890625 295.182617188 l 5
 376.091796875 73.5029296875 l 5
 136.677734375 71.2001953125 l 5
113.000976562 303.716796875 m 6
 114.654296875 59.9384765625 l 6
 114.6953125 53.83984375 119.680664062 48.9365234375 125.778320312 48.9951171875 c 6
 387.291015625 51.5107421875 l 6
 393.388671875 51.5693359375 398.306640625 56.5673828125 398.264648438 62.666015625 c 6
 396.611328125 306.444335938 l 6
 396.569335938 312.54296875 391.584960938 317.446289062 385.487304688 317.387695312 c 6
 123.974609375 314.872070312 l 6
 117.876953125 314.813476562 112.958984375 309.815429688 113.000976562 303.716796875 c 6
186.111328125 238.46875 m 5
 186.111328125 216.369140625 l 5
 326.498046875 216.369140625 l 5
 326.498046875 238.46875 l 5
 186.111328125 238.46875 l 5
186.111328125 151.473632812 m 5
 186.111328125 129.374023438 l 5
 326.498046875 129.374023438 l 5
 326.498046875 151.473632812 l 5
 186.111328125 151.473632812 l 5
301.506835938 -35.9189453125 m 5
 221.439453125 -35.9189453125 l 5
 221.439453125 49.8251953125 l 5
 301.506835938 49.8251953125 l 5
 301.506835938 -35.9189453125 l 5
210.389648438 -58.017578125 m 6
 312.556640625 -58.017578125 l 6
 318.655273438 -58.017578125 323.606445312 -53.06640625 323.606445312 -46.9677734375 c 6
 323.606445312 60.875 l 6
 323.606445312 66.97265625 318.655273438 71.923828125 312.556640625 71.923828125 c 6
 210.389648438 71.923828125 l 6
 204.291992188 71.923828125 199.340820312 66.97265625 199.340820312 60.875 c 6
 199.340820312 -46.9677734375 l 6
 199.340820312 -53.06640625 204.291992188 -58.017578125 210.389648438 -58.017578125 c 6
EndSplineSet
EndChar

StartChar: uni008E
Encoding: 142 142 15
Width: 512
VWidth: 511
Flags: HW
LayerCount: 2
Fore
SplineSet
184 161 m 4
 165.356445312 161 150.241210938 141.842773438 158.26953125 122.499023438 c 4
 188.619140625 49.3720703125 253.141601562 10.3720703125 337.232421875 10.3720703125 c 4
 363.481445312 10.3720703125 388.768554688 15.3447265625 411.872070312 24.505859375 c 4
 422.17578125 28.5908203125 429.469726562 38.6513671875 429.469726562 50.4013671875 c 4
 429.469726562 68.8642578125 410.6953125 83.95703125 391.376953125 76.2978515625 c 4
 374.77734375 69.7158203125 356.2890625 66.0634765625 337.232421875 66.0634765625 c 4
 276.278320312 66.0634765625 224.125976562 103.26953125 202.16015625 156.198242188 c 4
 197.973632812 166.286132812 195.594726562 161 184 161 c 4
391.375976562 349.078125 m 4
 410.681640625 341.422851562 429.469726562 356.510742188 429.469726562 374.973632812 c 4
 429.469726562 386.723632812 422.176757812 396.784179688 411.873046875 400.869140625 c 4
 388.766601562 410.032226562 363.479492188 415.000976562 337.232421875 415.000976562 c 4
 258.732421875 415.000976562 199.840820312 381.826171875 166.448242188 316.384765625 c 4
 156.58984375 297.065429688 171.662109375 275.911132812 191.267578125 275.911132812 c 4
 202.090820312 275.911132812 202.479492188 270.098632812 207.086914062 279.127929688 c 4
 231.356445312 326.689453125 280.567382812 359.310546875 337.232421875 359.310546875 c 4
 356.291992188 359.310546875 374.779296875 355.659179688 391.375976562 349.078125 c 4
93.837890625 100.881835938 m 5
 93.837890625 332.60546875 l 5
 258.265625 227.2734375 l 5
 93.837890625 100.881835938 l 5
65.9921875 383.510742188 m 5
 65.9921875 44.361328125 l 5
 306.6484375 229.346679688 l 5
 65.9921875 383.510742188 l 5
79.9228515625 72.6181640625 m 1029
EndSplineSet
EndChar

StartChar: uni008F
Encoding: 143 143 16
Width: 512
VWidth: 511
Flags: HW
LayerCount: 2
Fore
SplineSet
378.68359375 287.170898438 m 1026
240.583007812 310.447265625 m 1
 338.95703125 259.205078125 l 2
 361.379882812 259.443359375 383.474609375 260.008789062 405.815429688 260.413085938 c 0
 405.82421875 294.918945312 406.190429688 329.006835938 406.190429688 363.520507812 c 1
 382.4453125 362.897460938 358.853515625 361.744140625 334.961914062 361.744140625 c 0
 303.643554688 344.484375 272.044921875 327.518554688 240.583007812 310.447265625 c 1
392.249023438 273.790039062 m 1025
400.577148438 21.2548828125 m 1
 103.236328125 21.2548828125 l 1
 103.236328125 394.765625 l 1
 400.577148438 394.765625 l 1
 400.577148438 21.2548828125 l 1
89.615234375 -5.9892578125 m 2
 414.19921875 -5.9892578125 l 2
 421.716796875 -5.9892578125 427.8203125 0.115234375 427.8203125 7.6328125 c 2
 427.8203125 408.387695312 l 2
 427.8203125 415.90625 421.716796875 422.009765625 414.19921875 422.009765625 c 2
 89.615234375 422.009765625 l 2
 82.0966796875 422.009765625 75.9931640625 415.90625 75.9931640625 408.387695312 c 2
 75.9931640625 7.6328125 l 2
 75.9931640625 0.115234375 82.0966796875 -5.9892578125 89.615234375 -5.9892578125 c 2
163.470703125 15.2421875 m 2
 211.360351562 15.2421875 l 2
 218.87890625 15.2421875 224.982421875 21.345703125 224.982421875 28.8642578125 c 2
 224.982421875 76.7529296875 l 2
 224.982421875 84.271484375 218.87890625 90.375 211.360351562 90.375 c 2
 163.470703125 90.375 l 2
 155.953125 90.375 149.849609375 84.271484375 149.849609375 76.7529296875 c 2
 149.849609375 28.8642578125 l 2
 149.849609375 21.345703125 155.953125 15.2421875 163.470703125 15.2421875 c 2
162.140625 120.333007812 m 2
 210.030273438 120.333007812 l 2
 217.547851562 120.333007812 223.65234375 126.436523438 223.65234375 133.955078125 c 2
 223.65234375 181.84375 l 2
 223.65234375 189.362304688 217.547851562 195.465820312 210.030273438 195.465820312 c 2
 162.140625 195.465820312 l 2
 154.623046875 195.465820312 148.518554688 189.362304688 148.518554688 181.84375 c 2
 148.518554688 133.955078125 l 2
 148.518554688 126.436523438 154.623046875 120.333007812 162.140625 120.333007812 c 2
162.140625 232.075195312 m 2
 210.030273438 232.075195312 l 2
 217.547851562 232.075195312 223.65234375 238.178710938 223.65234375 245.696289062 c 2
 223.65234375 293.5859375 l 2
 223.65234375 301.104492188 217.547851562 307.208007812 210.030273438 307.208007812 c 2
 162.140625 307.208007812 l 2
 154.623046875 307.208007812 148.518554688 301.104492188 148.518554688 293.5859375 c 2
 148.518554688 245.696289062 l 2
 148.518554688 238.178710938 154.623046875 232.075195312 162.140625 232.075195312 c 2
160.810546875 338.49609375 m 2
 208.700195312 338.49609375 l 2
 216.217773438 338.49609375 222.322265625 344.599609375 222.322265625 352.1171875 c 2
 222.322265625 400.006835938 l 2
 222.322265625 407.525390625 216.217773438 413.62890625 208.700195312 413.62890625 c 2
 160.810546875 413.62890625 l 2
 153.291992188 413.62890625 147.188476562 407.525390625 147.188476562 400.006835938 c 2
 147.188476562 352.1171875 l 2
 147.188476562 344.599609375 153.291992188 338.49609375 160.810546875 338.49609375 c 2
EndSplineSet
EndChar

StartChar: uni0090
Encoding: 144 144 17
Width: 481
VWidth: 481
Flags: HW
LayerCount: 2
Fore
SplineSet
79.830078125 210.978515625 m 0
 79.830078125 299.455078125 151.541992188 371.166992188 240.018554688 371.166992188 c 0
 328.495117188 371.166992188 400.20703125 299.455078125 400.20703125 210.978515625 c 0
 400.20703125 122.501953125 328.495117188 50.7900390625 240.018554688 50.7900390625 c 0
 151.541992188 50.7900390625 79.830078125 122.501953125 79.830078125 210.978515625 c 0
51.984375 210.978515625 m 0
 51.984375 107.140625 136.180664062 22.9443359375 240.018554688 22.9443359375 c 0
 343.856445312 22.9443359375 428.052734375 107.140625 428.052734375 210.978515625 c 0
 428.052734375 314.81640625 343.856445312 399.012695312 240.018554688 399.012695312 c 0
 136.180664062 399.012695312 51.984375 314.81640625 51.984375 210.978515625 c 0
245.958984375 266.662109375 m 1
 227.495117188 266.731445312 l 1
 227.624023438 367.235351562 l 1
 246.087890625 367.166015625 l 1
 245.958984375 266.662109375 l 1
213.537109375 238.938476562 m 2
 259.845703125 238.764648438 l 2
 267.530273438 238.735351562 273.776367188 244.951171875 273.786132812 252.634765625 c 2
 273.950195312 380.984375 l 2
 273.959960938 388.66796875 267.729492188 394.930664062 260.045898438 394.958984375 c 2
 213.737304688 395.1328125 l 2
 206.052734375 395.161132812 199.806640625 388.946289062 199.796875 381.262695312 c 2
 199.6328125 252.913085938 l 2
 199.623046875 245.229492188 205.853515625 238.966796875 213.537109375 238.938476562 c 2
125.750976562 106.981445312 m 1
 113.7265625 120.9921875 l 1
 189.83203125 186.635742188 l 1
 201.856445312 172.624023438 l 1
 125.750976562 106.981445312 l 1
83.5732421875 113.37109375 m 2
 113.732421875 78.2294921875 l 2
 118.737304688 72.3984375 127.524414062 71.73828125 133.342773438 76.7578125 c 2
 230.534179688 160.586914062 l 2
 236.352539062 165.60546875 237.013671875 174.4140625 232.009765625 180.24609375 c 2
 201.850585938 215.387695312 l 2
 196.845703125 221.21875 188.05859375 221.877929688 182.240234375 216.859375 c 2
 85.048828125 133.029296875 l 2
 79.23046875 128.010742188 78.5693359375 119.202148438 83.5732421875 113.37109375 c 2
380.866210938 140.141601562 m 1
 370.4453125 124.900390625 l 1
 287.361328125 181.404296875 l 1
 297.782226562 196.646484375 l 1
 380.866210938 140.141601562 l 1
385.612304688 97.748046875 m 2
 411.749023438 135.975585938 l 2
 416.0859375 142.319335938 414.448242188 150.977539062 408.094726562 155.298828125 c 2
 301.985351562 227.461914062 l 2
 295.631835938 231.783203125 286.952148438 230.141601562 282.615234375 223.797851562 c 2
 256.478515625 185.5703125 l 2
 252.141601562 179.2265625 253.779296875 170.568359375 260.1328125 166.247070312 c 2
 366.241210938 94.083984375 l 2
 372.595703125 89.7626953125 381.275390625 91.404296875 385.612304688 97.748046875 c 2
EndSplineSet
EndChar

StartChar: uni0091
Encoding: 145 145 18
Width: 512
VWidth: 511
Flags: HW
LayerCount: 2
Fore
SplineSet
294 194.230748827 m 1025
250.833984375 301.5234375 m 0
 250.833984375 340.853515625 218.970703125 372.73828125 179.619140625 372.73828125 c 0
 140.26171875 372.73828125 108.375976562 340.845703125 108.375976562 301.5234375 c 0
 108.375976562 262.168945312 140.264648438 230.280273438 179.619140625 230.280273438 c 0
 218.967773438 230.280273438 250.833984375 262.161132812 250.833984375 301.5234375 c 0
139 200.18359375 m 5
 86.5427122698 169.243496845 57.904288573 102.926598899 69.63671875 28.3779296875 c 2
 72.1328125 12.517578125 l 1
 174.13671875 12.517578125 l 1
 180 21.9560546875 l 17
 452.716796875 21.9560546875 l 1
 461.984346781 80.8488675206 445.305664062 132.995117188 411.700195312 165 c 1
 438.673242407 179.113689704 457.080078125 207.366612333 457.080078125 239.918945312 c 0
 457.080078125 286.588867188 419.247070312 324.420898438 372.578125 324.420898438 c 0
 325.909179688 324.420898438 288.076171875 286.588867188 288.076171875 239.918945312 c 0
 288.076171875 223.40691016 296.8125 208.736328125 305 195.721679688 c 1
 302.658203125 195.280273438 296.324460704 194.782156396 294 194.23046875 c 1
 288.10546875 197.453125 l 2
 274.557416125 204.860112022 260.046730321 210.602160559 245 214.228515625 c 1
 271.763671875 234.1953125 289.09375 265.574176175 289.09375 301.5234375 c 0
 289.09375 361.954101562 240.083007812 410.998046875 179.619140625 410.998046875 c 0
 119.16015625 410.998046875 70.1171875 361.961914062 70.1171875 301.5234375 c 0
 70.1171875 255.412382049 98.640625 216.321289062 139 200.18359375 c 5
139 199.80673705 m 1025
104.991210938 50.1201171875 m 1
 104.991210938 53.9931640625 104.600585938 57.810546875 104.600585938 61.56640625 c 0
 104.600585938 132.35546875 148.413085938 181.0390625 208.513671875 181.0390625 c 0
 217.034179688 181.0390625 225.565429688 180.07421875 234.022460938 178.197265625 c 1
 191.770507812 149.342773438 158.6640625 103.213867188 143.995117188 50.1201171875 c 1
 104.991210938 50.1201171875 l 1
139 200.18382085 m 1025
292.856024377 194 m 1025
EndSplineSet
EndChar

StartChar: uni0092
Encoding: 146 146 19
Width: 512
VWidth: 511
Flags: HW
LayerCount: 2
Fore
SplineSet
225.653320312 405 m 5
 391.380859375 249.359375 l 5
 421.696289062 221.065429688 l 5
 380.264648438 221.065429688 l 5
 67 222.541015625 l 5
 68.0107421875 280.930664062 l 5
 311.127929688 277.31640625 l 5
 203.421875 381.754882812 l 5
 225.653320312 405 l 5
278.833007812 17.40234375 m 5
 113.10546875 173.041015625 l 5
 82.7890625 201.336914062 l 5
 124.221679688 201.336914062 l 5
 437.486328125 199.861328125 l 5
 436.475585938 141.47265625 l 5
 193.358398438 145.08984375 l 5
 301.064453125 40.64453125 l 5
 278.833007812 17.40234375 l 5
EndSplineSet
EndChar

StartChar: uni0093
Encoding: 147 147 20
Width: 512
VWidth: 511
Flags: HW
LayerCount: 2
Fore
SplineSet
226.108398438 290.115234375 m 5
 277.665039062 289.133789062 323.3203125 269.36328125 362.970703125 241.741210938 c 5
 339.374023438 222.862304688 l 6
 306.092773438 244.107421875 268.340820312 258.495117188 226.108398438 259.439453125 c 6
 226.108398438 290.115234375 l 5
226.108398438 353.236328125 m 5
 297.56640625 352.15625 362.939453125 326.598632812 415.474609375 285.396484375 c 5
 392.466796875 265.927734375 l 6
 345.896484375 300.805664062 288.536132812 322.11328125 226.108398438 323.151367188 c 6
 226.108398438 353.236328125 l 5
226.108398438 414 m 5
 316.478515625 412.857421875 398.26953125 378.586914062 462.66796875 324.331054688 c 5
 440.250976562 305.453125 l 6
 381.456054688 353.626953125 307.66796875 383.389648438 226.108398438 384.502929688 c 5
 226.108398438 414 l 5
236.358398438 230.553710938 m 4
 351.98046875 230.553710938 393.278320312 131.446289062 393.278320312 131.446289062 c 5
 393.278320312 117.877929688 l 5
 393.278320312 117.877929688 354.530273438 10.51171875 235.768554688 10.51171875 c 4
 107.533203125 10.51171875 70 119.057617188 70 119.057617188 c 5
 70 131.446289062 l 5
 70 131.446289062 111.809570312 230.553710938 236.358398438 230.553710938 c 4
225.150390625 214.036132812 m 4
 179.05078125 209.354492188 143.150390625 170.522460938 143.150390625 123.1875 c 4
 143.150390625 72.697265625 184.098632812 31.7490234375 234.588867188 31.7490234375 c 4
 285.079101562 31.7490234375 326.02734375 72.697265625 326.02734375 123.1875 c 4
 326.02734375 173.677734375 285.079101562 214.036132812 234.588867188 214.036132812 c 4
 231.43359375 214.036132812 228.223632812 214.34765625 225.150390625 214.036132812 c 4
187.561523438 120.534179688 m 4
 187.561523438 146.420898438 208.546875 167.40625 234.43359375 167.40625 c 4
 260.321289062 167.40625 281.306640625 146.420898438 281.306640625 120.534179688 c 4
 281.306640625 94.646484375 260.321289062 73.6611328125 234.43359375 73.6611328125 c 4
 208.546875 73.6611328125 187.561523438 94.646484375 187.561523438 120.534179688 c 4
EndSplineSet
EndChar

StartChar: uni0094
Encoding: 148 148 21
Width: 512
VWidth: 511
Flags: HW
LayerCount: 2
Fore
SplineSet
121.856445312 27.833984375 m 1
 121.856445312 394.145507812 l 1
 298.885742188 394.145507812 l 1
 388.181640625 303.129882812 l 1
 388.181640625 27.833984375 l 1
 121.856445312 27.833984375 l 1
94.01171875 408.068359375 m 2
 94.01171875 13.9111328125 l 2
 94.01171875 6.2265625 100.25 -0.01171875 107.93359375 -0.01171875 c 2
 402.104492188 -0.01171875 l 2
 409.788085938 -0.01171875 416.026367188 6.2265625 416.026367188 13.9111328125 c 2
 416.026367188 308.815429688 l 2
 416.026367188 312.609375 414.505859375 316.05078125 412.041015625 318.563476562 c 2
 314.6640625 417.81640625 l 2
 312.13671875 420.392578125 308.6171875 421.991210938 304.727539062 421.991210938 c 2
 107.93359375 421.991210938 l 2
 100.25 421.991210938 94.01171875 415.752929688 94.01171875 408.068359375 c 2
288.73828125 311.37109375 m 1
 288.73828125 373.587890625 l 1
 260.892578125 373.587890625 l 1
 260.892578125 343.567382812 260.892578125 313.546875 260.892578125 283.526367188 c 1
 294.0859375 283.526367188 327.279296875 283.526367188 360.471679688 283.526367188 c 1
 360.471679688 311.37109375 l 1
 288.73828125 311.37109375 l 1
EndSplineSet
EndChar

StartChar: uni0089
Encoding: 137 137 22
Width: 512
VWidth: 511
Flags: HW
LayerCount: 2
Fore
SplineSet
408.696289062 261.163085938 m 4
 399.076171875 261.163085938 391.513671875 250.96484375 396.112304688 241.28125 c 4
 406.052734375 220.348632812 411.6328125 196.94140625 411.6328125 172.270507812 c 4
 411.6328125 83.3916015625 339.588867188 11.37109375 250.734375 11.37109375 c 4
 161.879882812 11.37109375 89.8349609375 83.3916015625 89.8349609375 172.270507812 c 4
 89.8349609375 258.297851562 157.325195312 328.538085938 242.247070312 332.943359375 c 4
 249.591796875 333.32421875 255.438476562 339.408203125 255.438476562 346.84765625 c 4
 255.438476562 354.53125 249.200195312 360.76953125 240.784179688 360.750976562 c 4
 141.176757812 355.583984375 61.990234375 273.165039062 61.990234375 172.270507812 c 4
 61.990234375 68.02734375 146.520507812 -16.4736328125 250.734375 -16.4736328125 c 4
 354.947265625 -16.4736328125 439.478515625 68.02734375 439.478515625 172.270507812 c 4
 439.478515625 201.22265625 432.930664062 228.666992188 421.280273438 253.200195312 c 4
 419.045898438 257.90625 414.248046875 261.163085938 408.696289062 261.163085938 c 4
299.620117188 338.896484375 m 4
 299.620117188 369.420898438 324.350585938 394.151367188 354.875 394.151367188 c 4
 385.400390625 394.151367188 410.130859375 369.420898438 410.130859375 338.896484375 c 4
 410.130859375 308.37109375 385.400390625 283.640625 354.875 283.640625 c 4
 324.350585938 283.640625 299.620117188 308.37109375 299.620117188 338.896484375 c 4
271.774414062 338.896484375 m 4
 271.774414062 293.009765625 308.989257812 255.794921875 354.875 255.794921875 c 4
 400.76171875 255.794921875 437.9765625 293.009765625 437.9765625 338.896484375 c 4
 437.9765625 384.782226562 400.76171875 421.997070312 354.875 421.997070312 c 4
 308.989257812 421.997070312 271.774414062 384.782226562 271.774414062 338.896484375 c 4
285.697265625 338.896484375 m 1028
255.578125 194.42578125 m 5
 300.5546875 350.665039062 l 5
 273.791015625 358.369140625 l 5
 251.09375 279.524414062 228.396484375 200.6796875 205.69921875 121.834960938 c 5
 271.627929688 171.657226562 337.493164062 221.431640625 403.44921875 271.275390625 c 5
 386.663085938 293.487304688 l 5
 255.578125 194.42578125 l 5
EndSplineSet
EndChar

